<svg width="960" height="720" viewBox="0 0 960 720" fill="none" xmlns="http://www.w3.org/2000/svg">
  <defs>
    <linearGradient id="lab-bg" x1="0" y1="0" x2="1" y2="1">
      <stop offset="0%" stop-color="#0B1425" />
      <stop offset="100%" stop-color="#050509" />
    </linearGradient>
  </defs>
  <rect width="960" height="720" rx="28" fill="url(#lab-bg)" />
  <rect x="120" y="180" width="720" height="360" rx="24" fill="#0F172A" stroke="#7CFF90" stroke-opacity="0.35" />
  <rect x="160" y="220" width="280" height="240" rx="18" fill="#0A1323" stroke="#7CFF90" stroke-opacity="0.4" />
  <rect x="480" y="220" width="280" height="240" rx="18" fill="#0A1323" stroke="#7CFF90" stroke-opacity="0.4" />
  <rect x="200" y="260" width="200" height="40" rx="8" fill="#111827" />
  <rect x="520" y="260" width="200" height="40" rx="8" fill="#111827" />
  <rect x="520" y="320" width="200" height="40" rx="8" fill="#111827" />
  <rect x="200" y="320" width="200" height="90" rx="8" fill="#0B1626" stroke="#7CFF90" stroke-opacity="0.3" />
  <line x1="200" y1="320" x2="400" y2="320" stroke="#7CFF90" stroke-opacity="0.2" stroke-width="2" />
  <line x1="200" y1="365" x2="400" y2="365" stroke="#7CFF90" stroke-opacity="0.2" stroke-width="2" />
  <line x1="200" y1="410" x2="400" y2="410" stroke="#7CFF90" stroke-opacity="0.2" stroke-width="2" />
  <text x="180" y="240" fill="#7CFF90" font-size="16" font-family="'Inter', 'Segoe UI', sans-serif" letter-spacing="4">CAD STATION</text>
  <text x="500" y="240" fill="#7CFF90" font-size="16" font-family="'Inter', 'Segoe UI', sans-serif" letter-spacing="4">TEST BENCH</text>
  <text x="260" y="450" fill="#FFFFFF" fill-opacity="0.6" font-size="16" font-family="'Inter', 'Segoe UI', sans-serif" letter-spacing="3">SIMULATION</text>
  <text x="560" y="350" fill="#FFFFFF" fill-opacity="0.6" font-size="16" font-family="'Inter', 'Segoe UI', sans-serif" letter-spacing="3">SENSORS</text>
  <text x="560" y="390" fill="#FFFFFF" fill-opacity="0.6" font-size="16" font-family="'Inter', 'Segoe UI', sans-serif" letter-spacing="3">LOGGING</text>
</svg>
