<svg width="960" height="720" viewBox="0 0 960 720" fill="none" xmlns="http://www.w3.org/2000/svg">
  <defs>
    <linearGradient id="poster-bg" x1="0" y1="0" x2="1" y2="1">
      <stop offset="0%" stop-color="#0B1020" />
      <stop offset="100%" stop-color="#050509" />
    </linearGradient>
  </defs>
  <rect width="960" height="720" rx="32" fill="url(#poster-bg)" />
  <rect x="180" y="120" width="600" height="480" rx="20" fill="#0F172A" stroke="#7CFF90" stroke-opacity="0.35" />
  <rect x="220" y="160" width="520" height="80" rx="12" fill="#0A1323" stroke="#7CFF90" stroke-opacity="0.4" />
  <rect x="220" y="260" width="520" height="80" rx="12" fill="#0A1323" stroke="#7CFF90" stroke-opacity="0.35" />
  <rect x="220" y="360" width="520" height="80" rx="12" fill="#0A1323" stroke="#7CFF90" stroke-opacity="0.3" />
  <rect x="220" y="460" width="240" height="100" rx="16" fill="#0A1323" stroke="#7CFF90" stroke-opacity="0.4" />
  <rect x="500" y="460" width="240" height="100" rx="16" fill="#0A1323" stroke="#7CFF90" stroke-opacity="0.4" />
  <line x1="220" y1="215" x2="740" y2="215" stroke="#7CFF90" stroke-opacity="0.25" stroke-width="2" />
  <line x1="220" y1="315" x2="740" y2="315" stroke="#7CFF90" stroke-opacity="0.25" stroke-width="2" />
  <line x1="220" y1="415" x2="740" y2="415" stroke="#7CFF90" stroke-opacity="0.25" stroke-width="2" />
  <text x="240" y="205" fill="#7CFF90" font-size="18" font-family="'Inter', 'Segoe UI', sans-serif" letter-spacing="5">RESEARCH SUMMARY</text>
  <text x="240" y="305" fill="#7CFF90" font-size="18" font-family="'Inter', 'Segoe UI', sans-serif" letter-spacing="5">CFD RESULTS</text>
  <text x="240" y="405" fill="#7CFF90" font-size="18" font-family="'Inter', 'Segoe UI', sans-serif" letter-spacing="5">WIND TUNNEL DATA</text>
  <text x="260" y="520" fill="#FFFFFF" fill-opacity="0.7" font-size="16" font-family="'Inter', 'Segoe UI', sans-serif" letter-spacing="3">POSTER GRAPHICS</text>
  <text x="540" y="520" fill="#FFFFFF" fill-opacity="0.7" font-size="16" font-family="'Inter', 'Segoe UI', sans-serif" letter-spacing="3">DATA VISUALS</text>
</svg>
