<svg width="1600" height="900" viewBox="0 0 1600 900" fill="none" xmlns="http://www.w3.org/2000/svg">
  <defs>
    <linearGradient id="heroGradient" x1="0" y1="0" x2="0" y2="1">
      <stop offset="0" stop-color="#0A1020" />
      <stop offset="1" stop-color="#050509" />
    </linearGradient>
    <linearGradient id="accent" x1="0" y1="0" x2="1" y2="1">
      <stop offset="0" stop-color="#7CFF90" stop-opacity="0.25" />
      <stop offset="1" stop-color="#7CFF90" stop-opacity="0" />
    </linearGradient>
  </defs>
  <rect width="1600" height="900" fill="url(#heroGradient)" />
  <g opacity="0.5">
    <circle cx="1400" cy="220" r="220" fill="url(#accent)" />
    <circle cx="200" cy="720" r="260" fill="url(#accent)" />
  </g>
  <g stroke="#7CFF90" stroke-opacity="0.35">
    <path d="M250 820C600 620 1100 620 1420 780" stroke-width="2" />
    <path d="M180 700C540 520 1080 520 1420 680" stroke-width="1.5" />
    <path d="M150 580C520 440 1080 440 1450 600" stroke-width="1" />
  </g>
  <g opacity="0.35" stroke="#7CFF90" stroke-width="1.2">
    <path d="M900 120L1080 360" />
    <path d="M720 140L1020 520" />
    <path d="M540 180L900 640" />
  </g>
  <rect x="520" y="180" width="560" height="40" rx="10" fill="#7CFF90" fill-opacity="0.2" />
  <rect x="540" y="240" width="520" height="10" rx="5" fill="#7CFF90" fill-opacity="0.25" />
  <rect x="560" y="270" width="480" height="10" rx="5" fill="#7CFF90" fill-opacity="0.25" />
  <rect x="620" y="320" width="360" height="10" rx="5" fill="#7CFF90" fill-opacity="0.25" />
</svg>
