<svg width="960" height="640" viewBox="0 0 960 640" fill="none" xmlns="http://www.w3.org/2000/svg">
  <defs>
    <linearGradient id="bg" x1="0" y1="0" x2="0" y2="1">
      <stop offset="0" stop-color="#0A1020" />
      <stop offset="1" stop-color="#050509" />
    </linearGradient>
    <linearGradient id="accentV" x1="0" y1="0" x2="1" y2="1">
      <stop offset="0" stop-color="#7CFF90" stop-opacity="0.4" />
      <stop offset="1" stop-color="#7CFF90" stop-opacity="0.05" />
    </linearGradient>
  </defs>
  <rect width="960" height="640" rx="24" fill="url(#bg)" />
  <rect x="80" y="140" width="800" height="16" rx="8" fill="#1B2338" />
  <rect x="80" y="176" width="800" height="12" rx="6" fill="#1B2338" />
  <rect x="80" y="208" width="800" height="10" rx="5" fill="#1B2338" />
  <rect x="140" y="236" width="680" height="12" rx="6" fill="#7CFF90" fill-opacity="0.3" />
  <rect x="360" y="300" width="240" height="80" rx="16" stroke="#7CFF90" stroke-width="3" fill="url(#accentV)" />
  <rect x="240" y="280" width="100" height="120" rx="18" stroke="#7CFF90" stroke-opacity="0.7" stroke-width="2" fill="#0E1424" />
  <rect x="620" y="280" width="100" height="120" rx="18" stroke="#7CFF90" stroke-opacity="0.7" stroke-width="2" fill="#0E1424" />
  <path d="M120 320C200 260 760 260 840 320" stroke="#7CFF90" stroke-opacity="0.5" stroke-width="2" />
  <path d="M120 360C200 420 760 420 840 360" stroke="#7CFF90" stroke-opacity="0.5" stroke-width="2" />
  <circle cx="180" cy="320" r="18" fill="#7CFF90" fill-opacity="0.5" />
  <circle cx="780" cy="320" r="18" fill="#7CFF90" fill-opacity="0.5" />
  <circle cx="180" cy="360" r="18" fill="#7CFF90" fill-opacity="0.5" />
  <circle cx="780" cy="360" r="18" fill="#7CFF90" fill-opacity="0.5" />
  <rect x="120" y="420" width="720" height="2" fill="#7CFF90" fill-opacity="0.3" />
  <rect x="120" y="440" width="720" height="2" fill="#7CFF90" fill-opacity="0.2" />
</svg>
