<svg width="960" height="640" viewBox="0 0 960 640" fill="none" xmlns="http://www.w3.org/2000/svg">
  <defs>
    <linearGradient id="bgField" x1="0" y1="0" x2="0" y2="1">
      <stop offset="0" stop-color="#0A1224" />
      <stop offset="1" stop-color="#050509" />
    </linearGradient>
    <linearGradient id="fieldGlow" x1="0" y1="0" x2="1" y2="1">
      <stop offset="0" stop-color="#7CFF90" stop-opacity="0.35" />
      <stop offset="1" stop-color="#7CFF90" stop-opacity="0" />
    </linearGradient>
  </defs>
  <rect width="960" height="640" rx="24" fill="url(#bgField)" />
  <rect x="100" y="440" width="760" height="14" rx="7" fill="#0E1424" stroke="#7CFF90" stroke-opacity="0.35" />
  <rect x="140" y="420" width="680" height="10" rx="5" fill="#7CFF90" fill-opacity="0.22" />
  <rect x="180" y="400" width="600" height="8" rx="4" fill="#7CFF90" fill-opacity="0.18" />
  <circle cx="200" cy="350" r="80" fill="url(#fieldGlow)" />
  <circle cx="760" cy="320" r="120" fill="url(#fieldGlow)" />
  <rect x="360" y="240" width="240" height="140" rx="18" fill="#0E1424" stroke="#7CFF90" stroke-width="3" />
  <rect x="420" y="210" width="120" height="30" rx="12" fill="#7CFF90" fill-opacity="0.24" stroke="#7CFF90" stroke-opacity="0.5" />
  <rect x="380" y="260" width="200" height="12" rx="6" fill="#7CFF90" fill-opacity="0.18" />
  <rect x="380" y="284" width="200" height="10" rx="5" fill="#7CFF90" fill-opacity="0.18" />
  <rect x="440" y="320" width="80" height="18" rx="8" fill="#7CFF90" fill-opacity="0.35" />
  <path d="M160 500C240 480 320 470 480 470C640 470 720 480 800 500" stroke="#7CFF90" stroke-opacity="0.35" stroke-width="3" />
  <path d="M140 530C260 520 340 520 480 520C620 520 700 520 820 530" stroke="#7CFF90" stroke-opacity="0.2" stroke-width="2" />
</svg>
