<svg width="1200" height="675" viewBox="0 0 1200 675" fill="none" xmlns="http://www.w3.org/2000/svg">
  <rect width="1200" height="675" fill="#050509"/>
  <rect x="60" y="60" width="1080" height="555" rx="28" fill="url(#paint0_linear)" stroke="#7CFF90" stroke-opacity="0.18" stroke-width="2"/>
  <path d="M160 480C260 420 360 360 520 360C700 360 840 430 1040 360" stroke="#7CFF90" stroke-opacity="0.5" stroke-width="4" stroke-linecap="round"/>
  <path d="M160 420C260 360 380 330 520 330C700 330 880 370 1040 310" stroke="#7CFF90" stroke-opacity="0.35" stroke-width="3" stroke-linecap="round"/>
  <path d="M200 520C340 470 520 450 720 470C880 490 980 530 1040 550" stroke="#7CFF90" stroke-opacity="0.2" stroke-width="3" stroke-linecap="round"/>
  <circle cx="340" cy="230" r="10" fill="#7CFF90" fill-opacity="0.9"/>
  <circle cx="860" cy="210" r="8" fill="#7CFF90" fill-opacity="0.7"/>
  <circle cx="1020" cy="170" r="6" fill="#7CFF90" fill-opacity="0.5"/>
  <rect x="180" y="170" width="520" height="200" rx="18" fill="url(#paint1_linear)" stroke="#7CFF90" stroke-opacity="0.2"/>
  <path d="M460 290L520 250L580 270L640 210L700 230" stroke="#7CFF90" stroke-width="4" stroke-linecap="round" stroke-linejoin="round"/>
  <path d="M300 270L360 240L420 260L480 220L540 230" stroke="#7CFF90" stroke-width="3" stroke-linecap="round" stroke-linejoin="round" opacity="0.6"/>
  <rect x="820" y="420" width="220" height="120" rx="16" fill="#0C0C14" stroke="#7CFF90" stroke-opacity="0.25"/>
  <text x="840" y="470" fill="#7CFF90" fill-opacity="0.8" font-family="'Inter', 'Helvetica', 'Arial', sans-serif" font-size="20" font-weight="600" letter-spacing="3">GHP MECH &amp; AERO</text>
  <text x="840" y="500" fill="#DCE7FF" fill-opacity="0.75" font-family="'Inter', 'Helvetica', 'Arial', sans-serif" font-size="14" letter-spacing="2">Advanced curriculum · Lab work</text>
  <defs>
    <linearGradient id="paint0_linear" x1="1200" y1="0" x2="0" y2="675" gradientUnits="userSpaceOnUse">
      <stop stop-color="#11111A"/>
      <stop offset="1" stop-color="#050509"/>
    </linearGradient>
    <linearGradient id="paint1_linear" x1="700" y1="170" x2="180" y2="370" gradientUnits="userSpaceOnUse">
      <stop stop-color="#111828" stop-opacity="0.85"/>
      <stop offset="1" stop-color="#0A0E19" stop-opacity="0.6"/>
    </linearGradient>
  </defs>
</svg>
