<svg width="1920" height="600" viewBox="0 0 1920 600" xmlns="http://www.w3.org/2000/svg">
  <rect width="1920" height="600" fill="black"/>

  <!-- Diagonal lines (brighter) -->
  <g stroke="#0f0" stroke-opacity="0.22" stroke-width="1">
    <line x1="0" y1="50" x2="1920" y2="650"/>
    <line x1="0" y1="-50" x2="1920" y2="550"/>
    <line x1="0" y1="150" x2="1920" y2="750"/>
    <line x1="0" y1="250" x2="1920" y2="850"/>
  </g>

  <!-- Vertical grid lines (slightly brighter) -->
  <g stroke="#0f0" stroke-opacity="0.16" stroke-width="1">
    <line x1="200" y1="0" x2="200" y2="600"/>
    <line x1="600" y1="0" x2="600" y2="600"/>
    <line x1="1000" y1="0" x2="1000" y2="600"/>
    <line x1="1400" y1="0" x2="1400" y2="600"/>
  </g>

  <!-- Abstract geometric cluster (more visible) -->
  <g stroke="#0f0" stroke-opacity="0.28" stroke-width="1" fill="none">
    <polygon points="1400,200 1500,260 1470,360 1360,330"/>
    <polygon points="1470,360 1580,400 1520,500 1400,450"/>
    <polygon points="1360,330 1400,450 1300,420"/>
  </g>

  <!-- Dot matrix triangle (slightly brighter dots) -->
  <g fill="#0f0" fill-opacity="0.30">
    <circle cx="250" cy="420" r="2"/>
    <circle cx="270" cy="420" r="2"/>
    <circle cx="290" cy="420" r="2"/>
    <circle cx="310" cy="420" r="2"/>
    <circle cx="330" cy="420" r="2"/>
    <circle cx="350" cy="420" r="2"/>

    <circle cx="260" cy="440" r="2"/>
    <circle cx="280" cy="440" r="2"/>
    <circle cx="300" cy="440" r="2"/>
    <circle cx="320" cy="440" r="2"/>
    <circle cx="340" cy="440" r="2"/>

    <circle cx="270" cy="460" r="2"/>
    <circle cx="290" cy="460" r="2"/>
    <circle cx="310" cy="460" r="2"/>
    <circle cx="330" cy="460" r="2"/>

    <circle cx="280" cy="480" r="2"/>
    <circle cx="300" cy="480" r="2"/>
    <circle cx="320" cy="480" r="2"/>

    <circle cx="290" cy="500" r="2"/>
    <circle cx="310" cy="500" r="2"/>

    <circle cx="300" cy="520" r="2"/>
  </g>
</svg>
